<?xml version="1.0" encoding="UTF-8" standalone="no"?>
<svg
   height="24"
   viewBox="0 0 24 24"
   width="24"
   version="1.1"
   id="svg6"
   sodipodi:docname="hibernate.325efa9d.svg"
   inkscape:version="1.1.2 (0a00cf5339, 2022-02-04)"
   xmlns:inkscape="http://www.inkscape.org/namespaces/inkscape"
   xmlns:sodipodi="http://sodipodi.sourceforge.net/DTD/sodipodi-0.dtd"
   xmlns="http://www.w3.org/2000/svg"
   xmlns:svg="http://www.w3.org/2000/svg">
  <defs
     id="defs10" />
  <sodipodi:namedview
     id="namedview8"
     pagecolor="#9616E5"
     bordercolor="#666666"
     borderopacity="1.0"
     inkscape:pageshadow="2"
     inkscape:pageopacity="0.0"
     inkscape:pagecheckerboard="0"
     showgrid="false"
     inkscape:zoom="26.916667"
     inkscape:cx="13.801857"
     inkscape:cy="13.114551"
     inkscape:window-width="1280"
     inkscape:window-height="902"
     inkscape:window-x="0"
     inkscape:window-y="55"
     inkscape:window-maximized="1"
     inkscape:current-layer="svg6" />
  <path
     d="M0 0h24v24H0V0z"
     fill="none"
     id="path2" />
  <path
     d="M21 11h-3.17l2.54-2.54c.39-.39.39-1.02 0-1.41-.39-.39-1.03-.39-1.42 0L15 11h-2V9l3.95-3.95c.39-.39.39-1.03 0-1.42-.39-.39-1.02-.39-1.41 0L13 6.17V3c0-.55-.45-1-1-1s-1 .45-1 1v3.17L8.46 3.63c-.39-.39-1.02-.39-1.41 0-.39.39-.39 1.03 0 1.42L11 9v2H9L5.05 7.05c-.39-.39-1.03-.39-1.42 0-.39.39-.39 1.02 0 1.41L6.17 11H3c-.55 0-1 .45-1 1s.45 1 1 1h3.17l-2.54 2.54c-.39.39-.39 1.02 0 1.41.39.39 1.03.39 1.42 0L9 13h2v2l-3.95 3.95c-.39.39-.39 1.03 0 1.42.39.39 1.02.39 1.41 0L11 17.83V21c0 .55.45 1 1 1s1-.45 1-1v-3.17l2.54 2.54c.39.39 1.02.39 1.41 0 .39-.39.39-1.03 0-1.42L13 15v-2h2l3.95 3.95c.39.39 1.03.39 1.42 0 .39-.39.39-1.02 0-1.41L17.83 13H21c.55 0 1-.45 1-1s-.45-1-1-1z"
     fill="#ffffff"
     id="path4"
     style="fill:#ff00ff" />
</svg>
