<?xml version="1.0" encoding="UTF-8" standalone="no"?>
<svg
   width="24"
   height="24"
   viewBox="0 0 24 24"
   version="1.1"
   id="svg6"
   sodipodi:docname="shutdown.11fcb5df.svg"
   inkscape:version="1.1.2 (0a00cf5339, 2022-02-04)"
   xmlns:inkscape="http://www.inkscape.org/namespaces/inkscape"
   xmlns:sodipodi="http://sodipodi.sourceforge.net/DTD/sodipodi-0.dtd"
   xmlns="http://www.w3.org/2000/svg"
   xmlns:svg="http://www.w3.org/2000/svg">
  <defs
     id="defs10" />
  <sodipodi:namedview
     id="namedview8"
     pagecolor="#ffffff"
     bordercolor="#666666"
     borderopacity="1.0"
     inkscape:pageshadow="2"
     inkscape:pageopacity="0.0"
     inkscape:pagecheckerboard="0"
     showgrid="false"
     inkscape:zoom="26.916667"
     inkscape:cx="11.981424"
     inkscape:cy="12"
     inkscape:window-width="1280"
     inkscape:window-height="902"
     inkscape:window-x="0"
     inkscape:window-y="55"
     inkscape:window-maximized="1"
     inkscape:current-layer="svg6" />
  <path
     fill="none"
     d="M0 0h24v24H0V0z"
     id="path2" />
  <path
     fill="#ffffff"
     d="M12 3c-.55 0-1 .45-1 1v8c0 .55.45 1 1 1s1-.45 1-1V4c0-.55-.45-1-1-1zm5.14 2.86c-.39.39-.38 1-.01 1.39 1.13 1.2 1.83 2.8 1.87 4.57.09 3.83-3.08 7.13-6.91 7.17C8.18 19.05 5 15.9 5 12c0-1.84.71-3.51 1.87-4.76.37-.39.37-1-.01-1.38-.4-.4-1.05-.39-1.43.02C3.98 7.42 3.07 9.47 3 11.74c-.14 4.88 3.83 9.1 8.71 9.25 5.1.16 9.29-3.93 9.29-9 0-2.37-.92-4.51-2.42-6.11-.38-.41-1.04-.42-1.44-.02z"
     id="path4"
     style="fill:#ff00ff" />
</svg>
