<?xml version="1.0" encoding="UTF-8" standalone="no"?>
<svg
   width="24"
   height="24"
   viewBox="0 0 24 24"
   version="1.1"
   id="svg6"
   sodipodi:docname="suspend.96d1985e.svg"
   inkscape:version="1.1.2 (0a00cf5339, 2022-02-04)"
   xmlns:inkscape="http://www.inkscape.org/namespaces/inkscape"
   xmlns:sodipodi="http://sodipodi.sourceforge.net/DTD/sodipodi-0.dtd"
   xmlns="http://www.w3.org/2000/svg"
   xmlns:svg="http://www.w3.org/2000/svg">
  <defs
     id="defs10" />
  <sodipodi:namedview
     id="namedview8"
     pagecolor="#ffffff"
     bordercolor="#666666"
     borderopacity="1.0"
     inkscape:pageshadow="2"
     inkscape:pageopacity="0.0"
     inkscape:pagecheckerboard="0"
     showgrid="false"
     inkscape:zoom="26.916667"
     inkscape:cx="11.981424"
     inkscape:cy="12"
     inkscape:window-width="1280"
     inkscape:window-height="902"
     inkscape:window-x="0"
     inkscape:window-y="55"
     inkscape:window-maximized="1"
     inkscape:current-layer="svg6" />
  <path
     fill="none"
     d="M0 0h24v24H0V0z"
     id="path2" />
  <path
     fill="#ffffff"
     d="M18.87 10.37c-.75-4.76-5-8.35-9.82-8.37-.49 0-.97.03-1.44.1-.5.07-.6.73-.14.96C10.75 4.69 13 8.08 13 12s-2.25 7.31-5.53 8.95c-.45.23-.36.89.14.96.47.06.95.09 1.44.09 4.82-.02 9.07-3.61 9.82-8.37.09-.55.11-1.09.11-1.63 0-.54-.02-1.08-.11-1.63z"
     id="path4"
     style="fill:#ff00ff" />
</svg>
